<svg width="311" height="72" viewBox="0 0 311 72" fill="none" xmlns="http://www.w3.org/2000/svg">
<path d="M48.4746 31.5041C44.4378 31.5041 41.9859 34.6192 41.9859 38.8928V58.8803H31.0288V22.5232H41.9859V26.724C44.1476 23.9004 47.7529 21.6561 52.5115 21.6561C60.5126 21.6561 65.4888 27.0884 65.4888 34.9799V58.8803H54.5317V38.0221C54.5317 34.2585 52.37 31.5041 48.4746 31.5041Z" fill="white"/>
<path d="M167.756 32.0105V58.8766H156.795V22.5232H181.516L178.735 32.0105H167.756Z" fill="white"/>
<path d="M204.515 31.5041C200.478 31.5041 198.026 34.6192 198.026 38.8928V58.8803H187.069V22.5232H198.026V26.724C200.188 23.9004 203.793 21.6561 208.552 21.6561C216.553 21.6561 221.529 27.0884 221.529 34.9799V58.8803H210.572V38.0221C210.572 34.2585 208.411 31.5041 204.515 31.5041Z" fill="white"/>
<path d="M251.594 43.5235V22.5232H262.551V43.8842C262.551 53.2257 255.485 59.7437 245.754 59.7437C236.023 59.7437 228.885 53.2257 228.885 43.8113V22.5195H239.842V43.5198C239.842 47.7935 242.004 50.3256 245.754 50.3256C249.504 50.3256 251.594 47.7898 251.594 43.5198V43.5235Z" fill="white"/>
<path d="M84.3238 32.0106H104.222L107.003 22.5233H84.3238V11.983H73.3667V22.5233V43.815C73.3667 53.2295 80.4321 59.7474 90.2358 59.7474C100.04 59.7474 107.032 53.2295 107.032 43.8879V39.0714H96.0753V43.5236C96.0753 47.7972 93.9136 50.3294 90.2358 50.3294C86.5581 50.3294 84.3238 47.7936 84.3238 43.5236V32.0069V32.0106Z" fill="white"/>
<path d="M293.123 21.6561C288.146 21.6561 284.037 24.0461 281.948 26.8697V22.5232H270.991V72H281.948V54.5301C284.037 57.3537 288.146 59.7437 293.123 59.7437C302.999 59.7437 311.004 51.5608 311.004 40.6963C311.004 29.8318 303.003 21.6488 293.123 21.6488V21.6561ZM290.888 50.2601C285.553 50.2601 281.589 46.1322 281.589 40.6999C281.589 35.2677 285.553 31.1397 290.888 31.1397C296.224 31.1397 300.115 35.2677 300.115 40.6999C300.115 46.1322 296.151 50.2601 290.888 50.2601Z" fill="white"/>
<path d="M139.875 47.4584C138.573 49.7828 135.316 51.3094 131.99 51.1637C126.996 50.9451 123.815 47.8191 123.234 44.1138H150.44C151.742 31.322 144.071 21.6561 132.059 21.6561C120.989 21.6561 113.246 30.0869 113.246 40.842C113.246 51.0179 119.832 60.0316 131.986 60.0316C138.859 60.0316 144.837 57.106 148.155 51.7575L139.871 47.4584H139.875ZM131.986 30.4475C136.183 30.4475 139.44 32.7028 140.524 36.4809H123.303C124.315 32.8449 127.717 30.4475 131.986 30.4475Z" fill="white"/>
<path d="M15.0702 17.0946C19.7695 17.0946 23.5791 13.2679 23.5791 8.54731C23.5791 3.82676 19.7695 0 15.0702 0C10.3709 0 6.56128 3.82676 6.56128 8.54731C6.56128 13.2679 10.3709 17.0946 15.0702 17.0946Z" fill="#0093FF"/>
<path d="M2.7819 22.5232L0 32.0105H11.1748V58.8766H22.1319V22.5232H2.7819Z" fill="white"/>
</svg>
